HIERARCHY
ROOT hip
{
  OFFSET 0 0 0
  CHANNELS 6 Xposition Yposition Zposition Zrotation Yrotation Xrotation
  JOINT abdomen
  {
    OFFSET 0 20.6881 -0.73152
    CHANNELS 3 Zrotation Xrotation Yrotation
    JOINT chest
    {
      OFFSET 0 11.7043 -0.48768
      CHANNELS 3 Zrotation Xrotation Yrotation
      JOINT neck
      {
        OFFSET 0 22.1894 -2.19456
        CHANNELS 3 Zrotation Xrotation Yrotation
        JOINT head
        {
          OFFSET -0.24384 7.07133 1.2192
          CHANNELS 3 Zrotation Xrotation Yrotation
          JOINT leftEye
          {
            OFFSET 4.14528 8.04674 8.04672
            CHANNELS 3 Zrotation Xrotation Yrotation
            End Site
            {
              OFFSET 1 0 0
            }
          }
          JOINT rightEye
          {
            OFFSET -3.6576 8.04674 8.04672
            CHANNELS 3 Zrotation Xrotation Yrotation
            End Site
            {
              OFFSET 1 0 0
            }
          }
        }
      }
      JOINT rCollar
      {
        OFFSET -2.68224 19.2634 -4.8768
        CHANNELS 3 Zrotation Xrotation Yrotation
        JOINT rShldr
        {
          OFFSET -8.77824 -1.95073 1.46304
          CHANNELS 3 Zrotation Xrotation Yrotation
          JOINT rForeArm
          {
            OFFSET -28.1742 -1.7115 0.48768
            CHANNELS 3 Zrotation Xrotation Yrotation
            JOINT rHand
            {
              OFFSET -22.5879 0.773209 7.07136
              CHANNELS 3 Zrotation Xrotation Yrotation
              JOINT rThumb1
              {
                OFFSET -1.2192 -0.487915 3.41376
                CHANNELS 3 Zrotation Xrotation Yrotation
                JOINT rThumb2
                {
                  OFFSET -3.37035 -0.52449 3.41376
                  CHANNELS 3 Zrotation Xrotation Yrotation
                  End Site
                  {
                    OFFSET -1.78271 -1.18214 1.43049
                  }
                }
              }
              JOINT rIndex1
              {
                OFFSET -7.75947 0.938293 5.60832
                CHANNELS 3 Zrotation Xrotation Yrotation
                JOINT rIndex2
                {
                  OFFSET -2.54057 -0.884171 1.56538
                  CHANNELS 3 Zrotation Xrotation Yrotation
                  End Site
                  {
                    OFFSET -1.62519 -0.234802 1.16502
                  }
                }
              }
              JOINT rMid1
              {
                OFFSET -8.24714 1.18213 3.41376
                CHANNELS 3 Zrotation Xrotation Yrotation
                JOINT rMid2
                {
                  OFFSET -3.10165 -0.590103 1.0647
                  CHANNELS 3 Zrotation Xrotation Yrotation
                  End Site
                  {
                    OFFSET -2.48547 -0.328903 0.83742
                  }
                }
              }
              JOINT rRing1
              {
                OFFSET -8.82822 0.546677 1.51678
                CHANNELS 3 Zrotation Xrotation Yrotation
                JOINT rRing2
                {
                  OFFSET -2.60934 -0.819778 -0.0198488
                  CHANNELS 3 Zrotation Xrotation Yrotation
                  End Site
                  {
                    OFFSET -2.33842 -0.294052 0.168128
                  }
                }
              }
              JOINT rPinky1
              {
                OFFSET -8.27202 -0.0477905 -0.4584
                CHANNELS 3 Zrotation Xrotation Yrotation
                JOINT rPinky2
                {
                  OFFSET -1.82734 -0.647385 -0.700984
                  CHANNELS 3 Zrotation Xrotation Yrotation
                  End Site
                  {
                    OFFSET -1.69225 -0.51767 -0.607171
                  }
                }
              }
            }
          }
        }
      }
      JOINT lCollar
      {
        OFFSET 2.68224 19.2634 -4.8768
        CHANNELS 3 Zrotation Xrotation Yrotation
        JOINT lShldr
        {
          OFFSET 8.77824 -1.95073 1.46304
          CHANNELS 3 Zrotation Xrotation Yrotation
          JOINT lForeArm
          {
            OFFSET 28.1742 -1.7115 0.48768
            CHANNELS 3 Zrotation Xrotation Yrotation
            JOINT lHand
            {
              OFFSET 22.5879 0.773209 7.07136
              CHANNELS 3 Zrotation Xrotation Yrotation
              JOINT lThumb1
              {
                OFFSET 1.2192 -0.487915 3.41376
                CHANNELS 3 Zrotation Xrotation Yrotation
                JOINT lThumb2
                {
                  OFFSET 3.37035 -0.52449 3.41376
                  CHANNELS 3 Zrotation Xrotation Yrotation
                  End Site
                  {
                    OFFSET 1.78271 -1.18214 1.43049
                  }
                }
              }
              JOINT lIndex1
              {
                OFFSET 7.75947 0.938293 5.60832
                CHANNELS 3 Zrotation Xrotation Yrotation
                JOINT lIndex2
                {
                  OFFSET 2.54057 -0.884171 1.56538
                  CHANNELS 3 Zrotation Xrotation Yrotation
                  End Site
                  {
                    OFFSET 1.62519 -0.234802 1.16502
                  }
                }
              }
              JOINT lMid1
              {
                OFFSET 8.24714 1.18213 3.41376
                CHANNELS 3 Zrotation Xrotation Yrotation
                JOINT lMid2
                {
                  OFFSET 3.10165 -0.590103 1.0647
                  CHANNELS 3 Zrotation Xrotation Yrotation
                  End Site
                  {
                    OFFSET 2.48547 -0.328903 0.83742
                  }
                }
              }
              JOINT lRing1
              {
                OFFSET 8.82822 0.546677 1.51678
                CHANNELS 3 Zrotation Xrotation Yrotation
                JOINT lRing2
                {
                  OFFSET 2.60934 -0.819778 -0.0198488
                  CHANNELS 3 Zrotation Xrotation Yrotation
                  End Site
                  {
                    OFFSET 2.33842 -0.294052 0.168128
                  }
                }
              }
              JOINT lPinky1
              {
                OFFSET 8.27202 -0.0477905 -0.4584
                CHANNELS 3 Zrotation Xrotation Yrotation
                JOINT lPinky2
                {
                  OFFSET 1.82734 -0.647385 -0.700984
                  CHANNELS 3 Zrotation Xrotation Yrotation
                  End Site
                  {
                    OFFSET 1.69225 -0.51767 -0.607171
                  }
                }
              }
            }
          }
        }
      }
    }
  }
  JOINT rButtock
  {
    OFFSET -8.77824 4.35084 1.2192
    CHANNELS 3 Zrotation Xrotation Yrotation
    JOINT rThigh
    {
      OFFSET 0 -1.70687 -2.19456
      CHANNELS 3 Zrotation Xrotation Yrotation
      JOINT rShin
      {
        OFFSET 0 -36.8199 0.73152
        CHANNELS 3 Zrotation Xrotation Yrotation
        JOINT rFoot
        {
          OFFSET 0.73152 -45.1104 -5.12064
          CHANNELS 3 Zrotation Xrotation Yrotation
          End Site
          {
            OFFSET -1.1221 -3.69964 12.103
          }
        }
      }
    }
  }
  JOINT lButtock
  {
    OFFSET 8.77824 4.35084 1.2192
    CHANNELS 3 Zrotation Xrotation Yrotation
    JOINT lThigh
    {
      OFFSET 0 -1.70687 -2.19456
      CHANNELS 3 Zrotation Xrotation Yrotation
      JOINT lShin
      {
        OFFSET 0 -36.8199 0.73152
        CHANNELS 3 Zrotation Xrotation Yrotation
        JOINT lFoot
        {
          OFFSET -0.73152 -45.1104 -5.12064
          CHANNELS 3 Zrotation Xrotation Yrotation
          End Site
          {
            OFFSET 1.1221 -3.69964 12.103
          }
        }
      }
    }
  }
}
MOTION
Frames:	6
Frame Time:	0.00833333
27.986 85.5069 -85.2013 0.0 0.0 0.0 2.23592 -0.000458871 0.0604464 0.615847 0.00897576 0.106599 5.06491e-14 -2.38542e-15 -2.48481e-16 1.5281e-13 -6.36111e-15 -7.43889e-16 -0.0 0.0 0.0 -0.0 0.0 0.0 2.5244e-14 -2.08103e-16 -4.96962e-17 5.36518e-13 -3.79554e-15 1.98785e-16 9.19742e-12 -2.89013e-12 -1.27222e-13 1.05303e-10 2.00323e-12 -3.65764e-13 2.48399e-10 -1.93304e-12 -1.08457e-12 4.28975e-10 -3.33958e-12 -1.89402e-12 2.48406e-10 -1.9302e-12 -1.08457e-12 7.73091 5.47488 0.417314 2.48399e-10 -1.93199e-12 -1.08457e-12 2.90554 0.965183 0.102902 2.48408e-10 -1.93179e-12 -1.09014e-12 10.2786 0.731801 0.0259123 2.48395e-10 -1.93457e-12 -1.08775e-12 2.22167 -0.733487 -0.20892 2.53484e-14 -2.06938e-16 -1.98785e-16 5.30868e-13 -4.28629e-15 -1.98785e-15 9.20418e-12 2.60726e-12 -1.27222e-13 1.05315e-10 -3.52545e-12 -3.75305e-13 2.48438e-10 -1.9946e-12 -1.10365e-12 4.29042e-10 -3.44772e-12 -1.90118e-12 2.4843e-10 -1.99063e-12 -1.09093e-12 -7.73091 5.47488 -0.417314 2.48437e-10 -1.99361e-12 -1.10365e-12 -2.90554 0.965183 -0.102902 2.48424e-10 -1.99371e-12 -1.09968e-12 -10.2786 0.731801 -0.0259123 2.48434e-10 -1.99699e-12 -1.09729e-12 -2.22167 -0.733487 0.20892 -2.03217e-16 0.0 -3.88251e-19 2.21217 -7.80164 -0.22428 0.00521778 8.55959 0.135846 -0.549278 -0.766547 0.0462846 2.03217e-16 0.0 3.88251e-19 1.18505 -1.92859 -0.00255985 0.00908305 -2.07858 0.0749106 0.512592 3.99847 -0.1404
26.1917 84.8022 -86.7738 -4.7988 -8.4268 3.863 0.0364242 0.615192 1.81625 -0.506757 0.61601 0.589484 -0.340753 6.12085 1.14105 -1.0288 -13.9723 1.83835 -0.0 0.0 0.0 -0.0 0.0 0.0 4.58247e-14 1.22073e-15 -1.19748e-13 21.5896 6.4521 -1.94119 -5.20221 -2.59895 7.85393 0.00164773 0.900484 0.126498 8.69687e-11 -4.01946e-10 -4.54847e-10 1.4922e-10 -6.95649e-10 -7.86963e-10 8.69741e-11 -4.01944e-10 -4.54847e-10 7.73091 5.47488 0.417314 8.69671e-11 -4.01945e-10 -4.54846e-10 2.90554 0.965183 0.102902 8.69733e-11 -4.01943e-10 -4.54851e-10 10.2786 0.731801 0.0259123 8.69643e-11 -4.01946e-10 -4.54848e-10 2.22167 -0.733487 -0.20892 4.59221e-14 1.21122e-15 -1.19935e-13 -18.4044 8.19346 -1.59308 3.56246 -1.50683 -5.67966 -0.0171231 -2.90333 0.406146 2.58896e-11 -7.65232e-11 -6.13691e-10 4.83876e-11 -1.28605e-10 -1.06222e-09 2.58838e-11 -7.65204e-11 -6.1368e-10 -7.73091 5.47488 -0.417314 2.58893e-11 -7.65231e-11 -6.1369e-10 -2.90554 0.965183 -0.102902 2.5879e-11 -7.65235e-11 -6.13687e-10 -10.2786 0.731801 -0.0259123 2.58885e-11 -7.65255e-11 -6.13688e-10 -2.22167 -0.733487 0.20892 -2.03217e-16 0.0 -3.88251e-19 0.910155 -8.08574 -1.46012 -0.0102076 16.0705 0.258801 -0.778799 -2.23407 -3.1538 2.03217e-16 0.0 3.88251e-19 3.26998 -3.55043 -0.927016 0.00656601 -1.22374 0.0613197 0.509325 1.61232 2.2285
26.2828 84.9277 -86.4562 -4.9442 -9.3501 3.6532 -2.31007 1.26049 3.67118 -1.70682 1.26189 1.10019 -0.967219 12.581 2.39007 -1.02418 -28.6727 4.17993 -0.0 0.0 0.0 -0.0 0.0 0.0 6.75867e-14 9.1381e-16 -2.5532e-13 44.9066 13.2288 -4.08894 -9.92557 -5.17623 16.195 -0.000934916 1.85127 0.260169 -6.99222e-11 -8.84598e-10 -9.43307e-10 -1.22678e-10 -1.53098e-09 -1.63215e-09 -6.99184e-11 -8.84596e-10 -9.43306e-10 7.73091 5.47488 0.417314 -6.99259e-11 -8.84596e-10 -9.43305e-10 2.90554 0.965183 0.102902 -6.99227e-11 -8.84593e-10 -9.43309e-10 10.2786 0.731801 0.0259123 -6.99267e-11 -8.84595e-10 -9.43307e-10 2.22167 -0.733487 -0.20892 6.76784e-14 8.92917e-16 -2.55544e-13 -37.3577 16.8385 -3.37994 7.00528 -3.05031 -11.6962 0.00974772 -5.97048 0.838757 -2.02984e-10 -1.7241e-10 -1.32486e-09 -3.42636e-10 -2.90197e-10 -2.29298e-09 -2.02987e-10 -1.72408e-10 -1.32485e-09 -7.73091 5.47488 -0.417314 -2.02984e-10 -1.7241e-10 -1.32486e-09 -2.90554 0.965183 -0.102902 -2.02991e-10 -1.72411e-10 -1.32485e-09 -10.2786 0.731801 -0.0259123 -2.02982e-10 -1.72412e-10 -1.32486e-09 -2.22167 -0.733487 0.20892 -2.03217e-16 0.0 -3.88251e-19 -0.468669 -8.31177 -2.75043 -0.0644749 23.9351 0.403753 -1.20398 -3.81094 -6.54643 2.03217e-16 0.0 3.88251e-19 5.41686 -5.24314 -1.9146 0.00426654 -0.325987 0.0465454 0.720659 -0.89992 4.72844
26.4401 84.9844 -86.3355 -4.8575 -9.732 3.6254 -4.47563 1.83944 5.3303 -2.78267 1.8295 1.55594 -1.78641 18.3326 3.58584 0.37164 -41.7136 7.17776 -0.0 0.0 0.0 -0.0 0.0 0.0 8.69862e-14 4.07841e-15 -3.59146e-13 66.1439 19.2647 -6.1312 -13.5219 -7.21211 23.7366 -0.00699661 2.7014 0.37987 -2.35892e-10 -1.20197e-09 -1.36237e-09 -4.10292e-10 -2.08027e-09 -2.3571e-09 -2.35889e-10 -1.20197e-09 -1.36237e-09 7.73091 5.47488 0.417314 -2.35897e-10 -1.20197e-09 -1.36237e-09 2.90554 0.965183 0.102902 -2.35896e-10 -1.20197e-09 -1.36237e-09 10.2786 0.731801 0.0259123 -2.35896e-10 -1.20197e-09 -1.36237e-09 2.22167 -0.733487 -0.20892 8.70696e-14 4.04755e-15 -3.59407e-13 -53.7332 24.5005 -5.19975 9.80367 -4.34312 -17.0836 0.0733297 -8.70823 1.23107 -4.19207e-10 -2.2558e-10 -1.83886e-09 -7.12921e-10 -3.7892e-10 -3.18285e-09 -4.19208e-10 -2.2558e-10 -1.83886e-09 -7.73091 5.47488 -0.417314 -4.19206e-10 -2.25582e-10 -1.83886e-09 -2.90554 0.965183 -0.102902 -4.19211e-10 -2.25583e-10 -1.83886e-09 -10.2786 0.731801 -0.0259123 -4.19202e-10 -2.25583e-10 -1.83887e-09 -2.22167 -0.733487 0.20892 -2.03217e-16 0.0 -3.88251e-19 -1.73098 -8.64146 -3.93715 -0.154467 31.0917 0.557484 -1.72869 -5.10735 -9.58518 2.03217e-16 0.0 3.88251e-19 7.28187 -6.78752 -2.79016 0.00274719 0.485953 0.0341958 1.0936 -3.13306 6.97346
26.4592 84.895 -86.6609 -5.0506 -9.4373 4.3417 -6.11037 2.25906 6.49769 -3.52593 2.202 1.87363 -2.53874 22.3408 4.4948 2.70972 -50.7831 10.3835 -0.0 0.0 0.0 -0.0 0.0 0.0 1.0048e-13 1.59218e-14 -3.83605e-13 81.1829 23.5376 -7.61776 -15.7351 -8.44346 29.1154 -0.0133742 3.29993 0.464294 -4.24557e-10 -1.10616e-09 -1.60795e-09 -7.37197e-10 -1.91445e-09 -2.78144e-09 -4.24555e-10 -1.10615e-09 -1.60795e-09 7.73091 5.47488 0.417314 -4.24563e-10 -1.10615e-09 -1.60795e-09 2.90554 0.965183 0.102902 -4.24564e-10 -1.10615e-09 -1.60795e-09 10.2786 0.731801 0.0259123 -4.24562e-10 -1.10615e-09 -1.60795e-09 2.22167 -0.733487 -0.20892 1.00548e-13 1.58845e-14 -3.83903e-13 -64.7328 29.7781 -6.70897 11.609 -5.1781 -20.8555 0.140469 -10.6242 1.51065 -6.03806e-10 -1.71963e-10 -1.85997e-09 -1.03136e-09 -2.85471e-10 -3.2205e-09 -6.03806e-10 -1.71963e-10 -1.85996e-09 -7.73091 5.47488 -0.417314 -6.03805e-10 -1.71965e-10 -1.85996e-09 -2.90554 0.965183 -0.102902 -6.03808e-10 -1.71966e-10 -1.85996e-09 -10.2786 0.731801 -0.0259123 -6.038e-10 -1.71965e-10 -1.85997e-09 -2.22167 -0.733487 0.20892 -2.03217e-16 0.0 -3.88251e-19 -2.69239 -9.23789 -4.86388 -0.252941 36.4789 0.69124 -2.13296 -5.76348 -11.7076 2.03217e-16 0.0 3.88251e-19 8.5525 -7.967 -3.37386 0.00227114 1.08337 0.0278773 1.45722 -4.69907 8.56435
26.5338 84.8528 -86.7517 -5.1396 -9.5243 4.6818 -6.97078 2.4465 6.96796 -3.78922 2.29932 1.99563 -2.92881 23.9185 4.88497 4.27623 -54.4827 12.1954 -0.0 0.0 0.0 -0.0 0.0 0.0 1.15171e-13 4.54684e-14 -2.8384e-13 87.0461 25.3995 -8.10517 -16.5942 -8.92297 31.3724 -0.0164133 3.54051 0.498269 -7.5568e-10 -2.44995e-10 -1.67714e-09 -1.3108e-09 -4.24148e-10 -2.89947e-09 -7.55676e-10 -2.44997e-10 -1.67714e-09 7.73091 5.47488 0.417314 -7.55686e-10 -2.44995e-10 -1.67714e-09 2.90554 0.965183 0.102902 -7.55684e-10 -2.4499e-10 -1.67714e-09 10.2786 0.731801 0.0259123 -7.55684e-10 -2.44991e-10 -1.67714e-09 2.22167 -0.733487 -0.20892 1.15213e-13 4.5431e-14 -2.84179e-13 -68.786 31.7753 -7.46668 12.2874 -5.48952 -22.3422 0.172375 -11.3878 1.62349 -8.31594e-10 3.1554e-11 -1.07286e-09 -1.42887e-09 6.32212e-11 -1.86142e-09 -8.31594e-10 3.15531e-11 -1.07285e-09 -7.73091 5.47488 -0.417314 -8.31592e-10 3.15528e-11 -1.07286e-09 -2.90554 0.965183 -0.102902 -8.31597e-10 3.15514e-11 -1.07286e-09 -10.2786 0.731801 -0.0259123 -8.31588e-10 3.15536e-11 -1.07287e-09 -2.22167 -0.733487 0.20892 -2.03217e-16 0.0 -3.88251e-19 -3.22746 -10.2449 -5.43477 -0.317332 39.4044 0.766527 -2.20891 -5.53976 -12.5494 2.03217e-16 0.0 3.88251e-19 9.05513 -8.67495 -3.50647 0.0029404 1.39446 0.0302143 1.61557 -5.32696 9.1932
